<svg xmlns="http://www.w3.org/2000/svg" width="500" height="499"><circle data-name="Эллипс 1" cx="250" cy="249" r="250" fill="#3bc65c"/><path d="M282.137 122c-10.2 1.156-77.813 1.745-108.544 84.274s-16.2 124.791-16.2 124.791 9.2 38.575 48.6 43.757 67.482 2.143 98.824-19.448 56.395-51.936 63.183-69.688h-16.2s-34.976 39.546-66.422 47-42.244-1.127-46.982-3.241-9.773-13.168-9.72-27.551 0-27.551 0-27.551 29.073-.077 58.322-17.828 33.521-23.558 38.881-30.792c5.188-7 18.062-22.245 17.821-51.861s-9.416-38.168-17.821-43.758-31.095-9.292-43.742-8.104zm-48.6 128.032s4.2-40.443 32.4-84.274c19.254-28 39.012-16.174 38.882-6.483s1.981 75.168-71.284 90.757z" fill="#fff" fill-rule="evenodd"/></svg>